# xmcd CD database file
#
# Track frame offsets:
#	150
#	20350
#	41575
#	61737
#
# Disc length: 1103 seconds
#
# Revision: 0
# Processed by: cddbd v1.5.1PL0 Copyright (c) Steve Scherf et al.
# Submitted via: CDex 1.51
#
DISCID=27044d04
DTITLE=SweetS - Sky
DYEAR=2004
DGENRE=JPop
TTITLE0=Sky
TTITLE1=into the daylight 〜ヒカリ射す方へ〜
TTITLE2=Sky (Inst)
TTITLE3=into the daylight 〜ヒカリ射す方へ〜(Inst)
EXTD=YEAR: 2004
EXTT0=
EXTT1=
EXTT2=
EXTT3=
PLAYORDER=
